<svg id="_ÎÓÈ_1" data-name="—ÎÓÈ_1" xmlns="http://www.w3.org/2000/svg" viewBox="0 0 62 65.06"><defs><style>.cls-1{fill:#a2d964;}.cls-2,.cls-3{fill:#78cacb;}.cls-3{stroke:#78cacb;stroke-miterlimit:10;}</style></defs><title>CCI_best_of_</title><path class="cls-1" d="M31.4,60.83a26.56,26.56,0,0,1-.12-53.12V9.87a24.33,24.33,0,1,0,22.1,14.06L55.33,23A26.59,26.59,0,0,1,31.4,60.83Z"/><path class="cls-1" d="M31.4,60.91a26.6,26.6,0,0,1-18.7-45.47A26.16,26.16,0,0,1,31.29,7.63h.08V10h-.08a23.88,23.88,0,0,0-17.13,7.13A24.25,24.25,0,1,0,53.31,24l0-.08,2.09-1,0,.08a26.67,26.67,0,0,1-24,37.94ZM31.2,7.8a26,26,0,0,0-18.38,7.76,26.32,26.32,0,1,0,42.47,7.56L53.5,24A24.36,24.36,0,1,1,14,17,24,24,0,0,1,31.2,9.79Z"/><path class="cls-2" d="M41.66,8c-2.9,0-3.74,4.87-1.48,6.92l5.19,4.72L50.57,15C52.89,12.85,51.93,8,49.09,8c-1.06,0-1.57.63-3,1.89a1.06,1.06,0,0,1-1.41,0C43.23,8.66,42.73,8,41.66,8Zm3,13.89-5.91-5.38c-3.82-3.47-1.9-10.67,2.92-10.67a5.27,5.27,0,0,1,3.71,1.8,5.27,5.27,0,0,1,3.71-1.8c4.84,0,6.72,7.22,2.92,10.67l-5.91,5.38a1.07,1.07,0,0,1-1.44,0Z"/><path class="cls-2" d="M45.37,22.29a1.15,1.15,0,0,1-.77-.3l-5.91-5.38a6.77,6.77,0,0,1-1.58-7.4A4.89,4.89,0,0,1,41.66,5.8,5,5,0,0,1,45.2,7.42l.17.15.18-.16A5,5,0,0,1,49.09,5.8a4.89,4.89,0,0,1,4.55,3.4,6.77,6.77,0,0,1-1.58,7.41L46.15,22A1.15,1.15,0,0,1,45.37,22.29ZM41.66,6a4.73,4.73,0,0,0-4.4,3.31,6.6,6.6,0,0,0,1.54,7.22l5.91,5.38a1,1,0,0,0,1.33,0l5.91-5.38a6.61,6.61,0,0,0,1.53-7.23A4.73,4.73,0,0,0,49.09,6a4.86,4.86,0,0,0-3.43,1.58l-.23.21-.05,0-.05,0-.23-.2A4.86,4.86,0,0,0,41.66,6Zm3.71,13.83L40.13,15a4.85,4.85,0,0,1-1-5.1,2.73,2.73,0,0,1,2.53-2c.93,0,1.44.46,2.46,1.37l.61.54a1,1,0,0,0,1.3,0l.61-.54c1-.91,1.53-1.37,2.46-1.37a2.76,2.76,0,0,1,2.54,2,4.76,4.76,0,0,1-1,5.07ZM41.66,8.12A2.58,2.58,0,0,0,39.29,10a4.68,4.68,0,0,0,1,4.92l5.14,4.67,5.14-4.67a4.59,4.59,0,0,0,1-4.89,2.6,2.6,0,0,0-2.39-1.89c-.87,0-1.36.44-2.35,1.33l-.61.54a1.15,1.15,0,0,1-1.52,0L44,9.45C43,8.56,42.53,8.12,41.66,8.12Z"/><path class="cls-2" d="M36,43a1.06,1.06,0,0,1-.67-.24,1.08,1.08,0,0,1-.17-1.51L45.24,28.55a1.07,1.07,0,0,1,1.51-.17,1.08,1.08,0,0,1,.17,1.51L36.86,42.55A1.07,1.07,0,0,1,36,43Z"/><path class="cls-2" d="M36,43a1.15,1.15,0,0,1-.72-.25,1.16,1.16,0,0,1-.18-1.63L45.18,28.49a1.15,1.15,0,0,1,1.62-.18A1.16,1.16,0,0,1,47,29.94L36.93,42.6A1.15,1.15,0,0,1,36,43ZM46.08,28.22H46a1,1,0,0,0-.66.37L35.26,41.26a1,1,0,0,0,.16,1.4,1,1,0,0,0,1.39-.16L46.85,29.84a1,1,0,0,0-.16-1.4A1,1,0,0,0,46.08,28.22Z"/><path class="cls-2" d="M35.13,28a2.15,2.15,0,1,0,2.14,2.15A2.15,2.15,0,0,0,35.13,28Zm0,6.46a4.31,4.31,0,1,1,4.28-4.31,4.3,4.3,0,0,1-4.28,4.31Z"/><path class="cls-2" d="M35.13,34.56a4.39,4.39,0,1,1,4.37-4.39A4.38,4.38,0,0,1,35.13,34.56Zm0-8.61a4.22,4.22,0,1,0,4.2,4.22A4.22,4.22,0,0,0,35.13,25.95Zm0,6.46a2.24,2.24,0,1,1,2.23-2.24A2.23,2.23,0,0,1,35.13,32.41Zm0-4.31a2.07,2.07,0,1,0,2.06,2.07A2.07,2.07,0,0,0,35.13,28.1Z"/><path class="cls-2" d="M46.56,38.07a2.15,2.15,0,1,0,2.14,2.15,2.15,2.15,0,0,0-2.14-2.15Zm0,6.46a4.31,4.31,0,1,1,4.28-4.31,4.3,4.3,0,0,1-4.28,4.31Z"/><path class="cls-2" d="M46.56,44.61a4.39,4.39,0,1,1,4.37-4.39A4.38,4.38,0,0,1,46.56,44.61Zm0-8.61a4.22,4.22,0,1,0,4.2,4.22A4.22,4.22,0,0,0,46.56,36Zm0,6.46a2.24,2.24,0,1,1,2.22-2.24A2.23,2.23,0,0,1,46.56,42.46Zm0-4.31a2.07,2.07,0,1,0,2.06,2.07A2.07,2.07,0,0,0,46.56,38.15Z"/><path class="cls-3" d="M13.28,34.94c0-7.25,2.91-11.58,8-11.58s8,4.33,8,11.58-2.91,11.58-8,11.58S13.28,42.19,13.28,34.94Zm13.73,0c0-6-2.05-9.43-5.69-9.43S15.63,29,15.63,34.94s2.05,9.43,5.69,9.43S27,41,27,34.94Z"/></svg>