<svg id="_ÎÓÈ_1" data-name="—ÎÓÈ_1" xmlns="http://www.w3.org/2000/svg" viewBox="0 0 72 55.02"><defs><style>.cls-1{fill:#78cacb;}.cls-2{fill:#a2d964;}</style></defs><title>CCI_best_of_</title><path class="cls-1" d="M25.66,19.95c-4.69-.6-4.77-.86-5-1.56A1.23,1.23,0,0,1,21,17.14l3.12-2.93c.37-.35.37-.35,9.8-1.59a1.17,1.17,0,1,1,.31,2.33c-2.92.38-7.55,1-8.74,1.21l-1.29,1.21,1.79.25a1.17,1.17,0,0,1-.3,2.33Z"/><path class="cls-1" d="M25.81,20.16h-.17c-4.62-.59-4.89-.84-5.17-1.7A1.42,1.42,0,0,1,20.85,17L24,14.07c.41-.39.41-.39,9.91-1.64a1.37,1.37,0,1,1,.36,2.72c-2.68.35-7.35,1-8.68,1.2l-1,.89,1.38.19a1.37,1.37,0,0,1-.18,2.73Zm-.12-.41a1,1,0,0,0,.25-1.93l-1.79-.25-.4-.06L25.37,16h.06c1.24-.2,6-.85,8.75-1.21a1,1,0,0,0-.25-1.93c-9.19,1.21-9.37,1.24-9.69,1.54l-3.12,2.93a1,1,0,0,0-.27,1C21,18.92,21.12,19.17,25.69,19.75Z"/><path class="cls-1" d="M26,32.88a1.17,1.17,0,0,1-1.21-1.16A1.19,1.19,0,0,1,26,30.53h4.78L45.42,19.41a1.2,1.2,0,0,1,.23-.14,138.31,138.31,0,0,0,18.11-9l-3.58-.65a17.3,17.3,0,0,0-10.06,1.5L16.78,27.69a2.84,2.84,0,0,1-2.61.07h0L9.62,26l-1.29.55c3.26,2.17,5.15,3.21,5.15,3.21h0a.32.32,0,0,0,.18,0c.06,0,6.17-1,17.39-4.89a1.18,1.18,0,0,1,.77,2.23,133.55,133.55,0,0,1-16.53,4.79c-2.62.54-2.48.43-4.61-1L6.1,27.87a1.77,1.77,0,0,1,.38-3.1l2.39-1a1.84,1.84,0,0,1,1.39,0l5.28,2L49.12,9A19.67,19.67,0,0,1,60.6,7.34c3.35.6,5.48.54,5.69,2.56.34,3.26-14.92,9.52-19.57,11.48L31.92,32.64a1.61,1.61,0,0,1-.84.13L26,32.88Z"/><path class="cls-1" d="M26,33.08h0a1.37,1.37,0,0,1-1-2.33,1.41,1.41,0,0,1,1-.41h4.71L45.3,19.26a1.38,1.38,0,0,1,.27-.16A141.77,141.77,0,0,0,63.22,10.4l-3.07-.56a17.1,17.1,0,0,0-9.94,1.49L16.87,27.87a3,3,0,0,1-2.77.08l-.09,0L9.62,26.2l-.88.38c2.76,1.83,4.49,2.81,4.79,3h0l0,0,.05,0c.05,0,6.19-1,17.35-4.89a1.34,1.34,0,0,1,1,.06,1.38,1.38,0,0,1,.65,1.85,1.36,1.36,0,0,1-.78.7,133.35,133.35,0,0,1-16.55,4.8c-2.4.49-2.57.47-4.31-.72l-.45-.3L6,28a1.87,1.87,0,0,1-.84-1.75A2.06,2.06,0,0,1,6.4,24.59l2.39-1a2,2,0,0,1,1.54,0l5.2,2L49,8.85a19.91,19.91,0,0,1,11.6-1.71l1.58.26c2.46.38,4.08.64,4.27,2.47.3,2.89-10,7.62-19,11.41l-.62.26L32,32.8a1.68,1.68,0,0,1-1,.17Zm0-2.35a1,1,0,0,0-.73.3A1,1,0,0,0,26,32.68l5.12-.11a1.4,1.4,0,0,0,.72-.09L46.65,21.19l.64-.27c4.73-2,19.11-8,18.8-11-.16-1.53-1.5-1.74-3.94-2.12l-1.59-.26A19.52,19.52,0,0,0,49.21,9.21L15.56,26l-5.36-2.08a1.64,1.64,0,0,0-1.24,0L6.56,25a1.66,1.66,0,0,0-1,1.36,1.48,1.48,0,0,0,.66,1.38l4.58,3.06.45.31c1.64,1.12,1.67,1.14,4,.66a133,133,0,0,0,16.5-4.78,1,1,0,0,0,.6-1.24,1,1,0,0,0-.51-.57,1,1,0,0,0-.73,0C19.82,29,13.75,30,13.69,30a.46.46,0,0,1-.26,0h0l0,0s-1.94-1.07-5.17-3.22l-.31-.2,1.71-.73,4.71,1.84a2.61,2.61,0,0,0,2.38-.09L50,11A17.51,17.51,0,0,1,60.22,9.45l4.09.74-.44.27a139,139,0,0,1-18.14,9l-.19.11L30.82,30.73Z"/><path class="cls-2" d="M58.33,49.75H18.41a1.12,1.12,0,1,1,0-2.24H58.33a1.12,1.12,0,1,1,0,2.24Z"/><path class="cls-2" d="M58.33,50H18.41a1.32,1.32,0,1,1,0-2.63H58.33a1.32,1.32,0,1,1,0,2.63ZM18.41,47.72a.9.9,0,0,0-1,.92.89.89,0,0,0,1,.92H58.33a.9.9,0,0,0,1-.92.89.89,0,0,0-1-.92Z"/></svg>