<svg id="_ÎÓÈ_1" data-name="—ÎÓÈ_1" xmlns="http://www.w3.org/2000/svg" viewBox="0 0 68.5 52.69"><defs><style>.cls-1{fill:#a2d964;}.cls-2{fill:#78cacb;}</style></defs><title>CCI_best_of_</title><path class="cls-1" d="M55.91,7.6H13.83a5.11,5.11,0,0,0-5.11,5.11v27a5.11,5.11,0,0,0,5.11,5.11H29.66a1,1,0,0,0,0-2H13.83a3.07,3.07,0,0,1-3.06-3.06V27.21H33a3.1,3.1,0,0,0,1.39,2,3.14,3.14,0,0,0,.75.35l-1.8,3.09a1,1,0,0,0,1.15,1.5l2.45-.66L37.56,36a1,1,0,0,0,.85.75h.13a1,1,0,0,0,.88-.51l4.66-8.07,5.83,10.37a1,1,0,0,0,.89.52h.13a1,1,0,0,0,.86-.75l.65-2.45,2.45.66A1,1,0,0,0,56.05,35l-3-5.29h.29a3.13,3.13,0,0,0,3.06-2.51H59V39.68a3.07,3.07,0,0,1-3.06,3.06H45.7V37.23a1,1,0,0,0-2,0v5.52H38.35a1,1,0,0,0,0,2H55.91A5.11,5.11,0,0,0,61,39.68v-27A5.11,5.11,0,0,0,55.91,7.6ZM35.45,27.51a1.06,1.06,0,0,1-.5-.91V19.45h0a1.08,1.08,0,0,1,1.54-1l5,2.36a3.1,3.1,0,0,0-.19,1.08V24.1a3.1,3.1,0,0,0,.2,1.11l-5,2.37A1.06,1.06,0,0,1,35.45,27.51Zm3.45,5.54L38.61,32a1,1,0,0,0-1.25-.72l-1,.28,1.32-2.27,4.71-2.22ZM37.36,16.63a3.12,3.12,0,0,0-4.45,2.82v5.72H10.76V12.71a3.07,3.07,0,0,1,3.06-3.06H43.66V18.4a1,1,0,0,0,.11.47,3.1,3.1,0,0,0-.92.36Zm7.59,8.55h-.52a1.08,1.08,0,0,1-1.08-1.08V21.91a1.08,1.08,0,0,1,1.08-1.08h.52A1.08,1.08,0,0,1,46,21.91V24.1A1.08,1.08,0,0,1,44.95,25.18Zm8.12,8.71L52,33.6a1,1,0,0,0-1.25.72l-.27,1-4.64-8.25a3.1,3.1,0,0,0,.64-.27L50,28.48Zm.84-6.38a1.06,1.06,0,0,1-1,.06l-5-2.36a3.1,3.1,0,0,0,.21-1.11V21.91a3.11,3.11,0,0,0-.19-1.08l5-2.36a1.08,1.08,0,0,1,1.54,1V26.6h0A1.06,1.06,0,0,1,53.91,27.51ZM59,25.17H56.45V19.45A3.12,3.12,0,0,0,52,16.63l-5.49,2.59a3.1,3.1,0,0,0-.92-.36,1,1,0,0,0,.11-.46V9.65H55.91A3.07,3.07,0,0,1,59,12.71V25.17Z"/><path class="cls-1" d="M29.66,44.9H13.83a5.23,5.23,0,0,1-5.22-5.22v-27a5.23,5.23,0,0,1,5.22-5.22H55.91a5.23,5.23,0,0,1,5.22,5.22v27a5.23,5.23,0,0,1-5.22,5.22H38.35a1.13,1.13,0,0,1,0-2.27h5.2v-5.4a1.13,1.13,0,0,1,2.27,0v5.4h10.1a3,3,0,0,0,3-3V27.33H56.48a3.24,3.24,0,0,1-3.23,2.51l2.9,5.11a1.13,1.13,0,0,1-1.28,1.66L52.53,36l-.63,2.34a1.13,1.13,0,0,1-2.08.26l-5.74-10.2-4.56,7.89A1.13,1.13,0,0,1,37.45,36l-.63-2.34-2.34.63a1.13,1.13,0,0,1-1.27-1.67l1.73-3a3.24,3.24,0,0,1-.65-.31,3.19,3.19,0,0,1-1.42-2h-22V39.68a3,3,0,0,0,3,3H29.66a1.13,1.13,0,0,1,0,2.27ZM13.83,7.71a5,5,0,0,0-5,5v27a5,5,0,0,0,5,5H29.66a.91.91,0,1,0,0-1.82H13.83a3.18,3.18,0,0,1-3.18-3.18V27.1H33.06l0,.09a3,3,0,0,0,1.34,2,3,3,0,0,0,.73.33l.14,0-1.87,3.22a.91.91,0,0,0,1,1.33L37,33.38l.68,2.56a.91.91,0,0,0,1.66.22l4.76-8.24L50,38.47a.91.91,0,0,0,1.67-.21l.68-2.56,2.56.69a.91.91,0,0,0,1-1.33l-3.11-5.48.22,0a3,3,0,0,0,3.22-2.41l0-.09h2.79V39.68a3.18,3.18,0,0,1-3.18,3.18H45.59V37.23a.91.91,0,0,0-1.82,0v5.63H38.35a.91.91,0,0,0,0,1.82H55.91a5,5,0,0,0,5-5v-27a5,5,0,0,0-5-5ZM50.51,35.63,45.67,27l.14,0a3,3,0,0,0,.62-.26l.05,0,3.61,1.7,3.22,5.67L52,33.71a.91.91,0,0,0-1.11.64ZM46,27.15,50.43,35l.2-.74a1.13,1.13,0,0,1,1.39-.8l.81.22-2.92-5.14-3.44-1.62A3.22,3.22,0,0,1,46,27.15Zm-7.15,6.19L38.5,32a.92.92,0,0,0-.42-.55.9.9,0,0,0-.69-.09l-1.3.35,1.48-2.54,5.07-2.39Zm-1.23-2.21a1.13,1.13,0,0,1,.57.15,1.14,1.14,0,0,1,.53.69l.21.79,3.14-5.44-4.35,2.05-1.17,2,.78-.21A1.14,1.14,0,0,1,37.63,31.13ZM53.33,27.8a1.19,1.19,0,0,1-.51-.12l-5.11-2.41,0-.1A3,3,0,0,0,48,24.1V21.91a3,3,0,0,0-.19-1l0-.1,5.09-2.4a1.19,1.19,0,0,1,1.7,1.08V26.6a1.17,1.17,0,0,1-.55,1h0A1.18,1.18,0,0,1,53.33,27.8ZM48,25.15l4.92,2.32a1,1,0,0,0,.93-.06h0a1,1,0,0,0,.45-.81V19.45a1,1,0,0,0-1.37-.87L48,20.89a3.21,3.21,0,0,1,.17,1V24.1A3.21,3.21,0,0,1,48,25.15ZM36,27.8a1.2,1.2,0,0,1-1.19-1.19V19.45a1.19,1.19,0,0,1,1.7-1.08l5.11,2.41,0,.1a3,3,0,0,0-.18,1V24.1a3,3,0,0,0,.2,1.07l0,.1-5.12,2.42A1.2,1.2,0,0,1,36,27.8Zm0-9.31a1,1,0,0,0-1,1V26.6a1,1,0,0,0,1.37.87l4.93-2.33a3.21,3.21,0,0,1-.18-1V21.91a3.21,3.21,0,0,1,.16-1l-4.92-2.32A1,1,0,0,0,36,18.48Zm8.93,6.81h-.52a1.19,1.19,0,0,1-1.19-1.19V21.91a1.19,1.19,0,0,1,1.19-1.19h.52a1.19,1.19,0,0,1,1.19,1.19V24.1A1.19,1.19,0,0,1,44.95,25.29ZM44.42,21a1,1,0,0,0-1,1V24.1a1,1,0,0,0,1,1h.52a1,1,0,0,0,1-1V21.91a1,1,0,0,0-1-1Zm14.67,4.33H56.34V19.45A3,3,0,0,0,52,16.73L46.5,19.34l-.05,0a3,3,0,0,0-.89-.34l-.14,0,.07-.13a.9.9,0,0,0,.1-.41V9.53H55.91a3.18,3.18,0,0,1,3.18,3.18Zm-2.53-.23h2.3V12.71a3,3,0,0,0-3-3H45.81V18.4a1.12,1.12,0,0,1-.07.39,3.21,3.21,0,0,1,.77.31L52,16.52a3.23,3.23,0,0,1,4.61,2.92ZM33,25.28H10.65V12.71a3.18,3.18,0,0,1,3.18-3.18H43.77V18.4a.9.9,0,0,0,.1.42l.07.13-.14,0a3,3,0,0,0-.88.34l-.05,0-5.55-2.62A3,3,0,0,0,33,19.45Zm-22.14-.23H32.79V19.45a3.23,3.23,0,0,1,4.61-2.92l5.45,2.57a3.21,3.21,0,0,1,.76-.31,1.12,1.12,0,0,1-.07-.39V9.76H13.83a3,3,0,0,0-3,3Z"/><path class="cls-2" d="M34.65,43a1,1,0,1,0,.3.72A1,1,0,0,0,34.65,43Z"/><path class="cls-2" d="M33.93,44.9a1.13,1.13,0,1,1,.8-1.94h0a1.13,1.13,0,0,1-.8,1.94Zm0-2a.91.91,0,1,0,.64.27h0A.91.91,0,0,0,33.93,42.85Z"/><path class="cls-2" d="M30.33,13.12H15.26a1,1,0,0,0,0,2H30.33a1,1,0,0,0,0-2Z"/><path class="cls-2" d="M30.33,15.27H15.26a1.13,1.13,0,0,1,0-2.27H30.33a1.13,1.13,0,1,1,0,2.27Zm-15.07-2a.91.91,0,0,0,0,1.82H30.33a.91.91,0,1,0,0-1.82Z"/><path class="cls-2" d="M30.33,36.2H15.26a1,1,0,1,0,0,2H30.33a1,1,0,1,0,0-2Z"/><path class="cls-2" d="M30.33,38.36H15.26a1.13,1.13,0,0,1,0-2.27H30.33a1.13,1.13,0,1,1,0,2.27Zm-15.07-2a.91.91,0,0,0,0,1.82H30.33a.91.91,0,1,0,0-1.82Z"/><path class="cls-2" d="M21.59,18.63H15.26a1,1,0,0,0,0,2h6.33a1,1,0,0,0,0-2Z"/><path class="cls-2" d="M21.59,20.79H15.26a1.13,1.13,0,0,1,0-2.27h6.33a1.13,1.13,0,0,1,0,2.27Zm-6.33-2a.91.91,0,0,0,0,1.82h6.33a.91.91,0,0,0,0-1.82Z"/><path class="cls-2" d="M26.27,18.93a1,1,0,1,0,.3.72A1,1,0,0,0,26.27,18.93Z"/><path class="cls-2" d="M25.54,20.79a1.13,1.13,0,1,1,.8-1.94h0a1.13,1.13,0,0,1-.8,1.94Zm0-2a.91.91,0,1,0,.64.27h0A.91.91,0,0,0,25.54,18.75Z"/></svg>