<svg id="_ÎÓÈ_1" data-name="—ÎÓÈ_1" xmlns="http://www.w3.org/2000/svg" viewBox="0 0 68.3 63"><defs><style>.cls-1{fill:#a2d964;}.cls-2{fill:#78cacb;}</style></defs><title>CCI_best_of_</title><path class="cls-1" d="M39.78,36.63a4.88,4.88,0,0,1-4.46,4.27v1.78a1.06,1.06,0,0,1-2.11,0v-1.8a6.29,6.29,0,0,1-4.69-4.5A1.06,1.06,0,1,1,30.59,36a4.24,4.24,0,0,0,3.55,2.84c2.11,0,3.31-.85,3.55-2.53.19-1.35-.36-1.81-.87-2.06a12.66,12.66,0,0,0-1.25-.47c-2.79-1-5.36-2-6.13-3.79a4.61,4.61,0,0,1,.15-3.79A4.89,4.89,0,0,1,33,23.69l.16,0V21.89c0-.44.47-.79,1.06-.79s1.06.35,1.06.79v1.72A4.65,4.65,0,0,1,38.89,27a1.05,1.05,0,0,1-2,.52,2.56,2.56,0,0,0-3.34-1.82,2.89,2.89,0,0,0-2,1.42,2.45,2.45,0,0,0-.1,2c.46,1.09,3.45,2.13,4.88,2.63a15.12,15.12,0,0,1,1.51.57A3.81,3.81,0,0,1,39.78,36.63Z"/><path class="cls-1" d="M34.26,43.71a1.09,1.09,0,0,1-1.14-1V40.94a6.34,6.34,0,0,1-4.69-4.56,1.14,1.14,0,0,1,.93-1.31,1.15,1.15,0,0,1,1.31.94,4.14,4.14,0,0,0,3.47,2.77c2.07,0,3.23-.83,3.46-2.46.18-1.29-.31-1.72-.82-2a12.83,12.83,0,0,0-1.24-.47c-2.81-1-5.4-2-6.18-3.83a4.71,4.71,0,0,1,.16-3.86A5,5,0,0,1,33,23.61l.1,0v-1.7a1.18,1.18,0,0,1,2.28,0v1.65A4.78,4.78,0,0,1,39,27a1.11,1.11,0,0,1-.12.86,1.14,1.14,0,0,1-2.08-.3,2.46,2.46,0,0,0-3.24-1.75,2.81,2.81,0,0,0-2,1.38,2.38,2.38,0,0,0-.1,1.94c.45,1,3.38,2.07,4.79,2.57l.07,0a14.77,14.77,0,0,1,1.49.56,3.88,3.88,0,0,1,2.05,4.34h0A5,5,0,0,1,35.4,41v1.71A1.09,1.09,0,0,1,34.26,43.71Zm-4.72-8.48h-.15a1,1,0,0,0-.8,1.12,6.25,6.25,0,0,0,4.63,4.44h.07v1.87a1,1,0,0,0,1.95,0V40.83h.07a4.8,4.8,0,0,0,4.39-4.19,3.73,3.73,0,0,0-2-4.17,14.71,14.71,0,0,0-1.47-.55l-.07,0c-1.54-.54-4.41-1.54-4.89-2.66a2.55,2.55,0,0,1,.1-2.08,3,3,0,0,1,2.09-1.47,2.74,2.74,0,0,1,2.66.55,3,3,0,0,1,.78,1.32,1,1,0,0,0,1.78.25,1,1,0,0,0,.1-.73,4.6,4.6,0,0,0-3.51-3.38h-.07V21.89c0-.39-.44-.71-1-.71s-1,.32-1,.71v1.85H33.2l-.13,0a4.82,4.82,0,0,0-3.39,2.49A4.54,4.54,0,0,0,29.52,30c.76,1.76,3.31,2.77,6.08,3.74a12.29,12.29,0,0,1,1.26.48c.53.26,1.11.75.91,2.15C37.52,38.08,36.3,39,34.14,39a3.83,3.83,0,0,1-2.33-1A3.62,3.62,0,0,1,30.51,36,1,1,0,0,0,29.54,35.23Z"/><path class="cls-1" d="M10,24.65c3.57,0,6.48-3.24,6.48-7.22V16.3H41.67V14.19H12.82A6.09,6.09,0,0,0,7,20.52v22a6.08,6.08,0,0,0,5.79,6.33h7V46.75h-3.4V45.62c0-4-2.91-7.22-6.48-7.22H9.14V24.65Zm-.83-4.12a4,4,0,0,1,3.67-4.22h1.52v1.13c0,2.82-2,5.11-4.36,5.11H9.14Zm.83,20c2.41,0,4.36,2.29,4.36,5.11v1.13H12.82a4,4,0,0,1-3.67-4.22v-2Z"/><path class="cls-1" d="M19.93,48.94H12.82a6.16,6.16,0,0,1-5.87-6.41v-22a6.17,6.17,0,0,1,5.87-6.42H41.75v2.28H16.53v1c0,4-2.94,7.3-6.56,7.3H9.23V38.32H10c3.62,0,6.56,3.28,6.56,7.3v1h3.4ZM12.82,14.27a6,6,0,0,0-5.7,6.25v22a6,6,0,0,0,5.7,6.24h6.95V46.83h-3.4V45.62c0-3.94-2.87-7.14-6.39-7.14H9.06V24.57H10c3.52,0,6.39-3.2,6.39-7.14V16.22H41.58V14.27Zm1.6,32.56h-1.6a4.06,4.06,0,0,1-3.76-4.3v-2.1H10c2.45,0,4.45,2.33,4.45,5.19ZM9.23,40.6v1.94a3.89,3.89,0,0,0,3.59,4.13h1.44v-1c0-2.77-1.92-5-4.28-5Zm.75-18H9.06v-2.1a4.06,4.06,0,0,1,3.76-4.31h1.6v1.21C14.42,20.29,12.42,22.62,10,22.62Zm-.75-.17H10c2.36,0,4.28-2.25,4.28-5v-1H12.82a3.9,3.9,0,0,0-3.59,4.14Z"/><path class="cls-1" d="M55.11,14.19H48V16.3h3.48v1.13c0,4,2.91,7.22,6.48,7.22h.83V38.4H58c-3.57,0-6.48,3.24-6.48,7.22v1.13H26.18v2.11H55.11a6.08,6.08,0,0,0,5.79-6.33v-22A6.09,6.09,0,0,0,55.11,14.19Zm3.68,28.34a4,4,0,0,1-3.68,4.22H53.59V45.62c0-2.82,2-5.11,4.36-5.11h.83Zm-.83-20c-2.41,0-4.36-2.29-4.36-5.11V16.3h1.51a4,4,0,0,1,3.68,4.22v2Z"/><path class="cls-1" d="M55.11,48.94h-29V46.66H51.4v-1c0-4,2.94-7.3,6.56-7.3h.75V24.73H58c-3.62,0-6.56-3.28-6.56-7.3v-1H47.92V14.11h7.19A6.17,6.17,0,0,1,61,20.52v22A6.17,6.17,0,0,1,55.11,48.94Zm-28.84-.17H55.11a6,6,0,0,0,5.71-6.24v-22a6,6,0,0,0-5.71-6.25h-7v1.95h3.48v1.21c0,3.94,2.87,7.14,6.39,7.14h.91V38.48H58c-3.52,0-6.39,3.2-6.39,7.14v1.21H26.26Zm28.84-1.95h-1.6V45.62c0-2.86,2-5.19,4.45-5.19h.91v2.1A4.06,4.06,0,0,1,55.11,46.83Zm-1.43-.17h1.43a3.9,3.9,0,0,0,3.6-4.13V40.6H58c-2.36,0-4.28,2.25-4.28,5Zm5.19-24H58c-2.45,0-4.45-2.33-4.45-5.19V16.22h1.6a4.07,4.07,0,0,1,3.76,4.31Zm-5.19-6.24v1c0,2.77,1.92,5,4.28,5h.75V20.52a3.9,3.9,0,0,0-3.6-4.14Z"/><path class="cls-2" d="M44,24.53a1.06,1.06,0,0,0,1.66,0l3.87-4.93a1.06,1.06,0,0,0-1.66-1.31l-2,2.53v-7.3c0-3.22-2.25-5.83-5-5.83h-21a1.06,1.06,0,0,0,0,2.11h21c1.6,0,2.9,1.67,2.9,3.72v7.3l-2-2.53a1.06,1.06,0,0,0-1.66,1.31Z"/><path class="cls-2" d="M44.83,25a1.15,1.15,0,0,1-.9-.43h0l-3.87-4.93a1.14,1.14,0,0,1,1.79-1.41l1.84,2.34V13.52c0-2-1.26-3.64-2.82-3.64h-21a1.14,1.14,0,0,1,0-2.28h21c2.81,0,5.09,2.65,5.09,5.92v7.06l1.84-2.34a1.14,1.14,0,0,1,1.6-.19,1.14,1.14,0,0,1,.19,1.6l-3.87,4.93A1.14,1.14,0,0,1,44.83,25Zm-.77-.54a1,1,0,0,0,1.53,0l3.87-4.93a1,1,0,0,0-1.53-1.21L45.8,21.06V13.52c0-3.17-2.21-5.75-4.93-5.75h-21a1,1,0,0,0,0,1.95h21c1.64,0,3,1.71,3,3.81v7.54l-2.13-2.72a1,1,0,0,0-1.53,1.21Z"/><path class="cls-2" d="M49.06,54.14A1.05,1.05,0,0,1,48,55.19H27c-2.77,0-5-2.62-5-5.83v-7.3l-2,2.53a1.06,1.06,0,0,1-1.66-1.31l3.87-4.93a1.1,1.1,0,0,1,1.66,0l3.87,4.93a1.06,1.06,0,0,1-.18,1.48,1,1,0,0,1-.65.23,1.07,1.07,0,0,1-.83-.4l-2-2.53v7.3c0,2.06,1.3,3.72,2.91,3.72H48A1.05,1.05,0,0,1,49.06,54.14Z"/><path class="cls-2" d="M48,55.28H27c-2.81,0-5.1-2.65-5.1-5.92V42.3L20,44.64a1.14,1.14,0,0,1-1.79-1.41l3.87-4.93a1.13,1.13,0,0,1,.9-.41h0a1.13,1.13,0,0,1,.9.41l3.87,4.93a1.15,1.15,0,0,1-.19,1.6,1.13,1.13,0,0,1-.71.24,1.15,1.15,0,0,1-.89-.43L24.15,42.3v7.06c0,2,1.27,3.64,2.82,3.64H48a1.14,1.14,0,0,1,0,2.28ZM22,41.82v7.54c0,3.17,2.21,5.75,4.93,5.75H48a1,1,0,0,0,0-1.95H27c-1.65,0-3-1.71-3-3.81V41.82l2.13,2.72a1,1,0,0,0,.77.37,1,1,0,0,0,.6-.21,1,1,0,0,0,.16-1.37L23.78,38.4a1,1,0,0,0-.77-.35h0a1,1,0,0,0-.77.35l-3.87,4.93a1,1,0,0,0,1.53,1.21Z"/></svg>