<svg id="_ÎÓÈ_1" data-name="—ÎÓÈ_1" xmlns="http://www.w3.org/2000/svg" viewBox="0 0 68.5 44.23"><defs><style>.cls-1{fill:#78cacb;}.cls-2{fill:#a2d964;}</style></defs><title>CCI_best_of_</title><path class="cls-1" d="M40.77,27.78A4.79,4.79,0,0,1,36.39,32v1.75a1,1,0,0,1-2.07,0V31.95a6.18,6.18,0,0,1-4.61-4.42,1,1,0,1,1,2-.34A4.16,4.16,0,0,0,35.24,30c2.07,0,3.25-.84,3.48-2.49.19-1.33-.35-1.78-.85-2A12.43,12.43,0,0,0,36.64,25c-2.74-1-5.26-1.95-6-3.72a4.53,4.53,0,0,1,.15-3.73,4.8,4.8,0,0,1,3.39-2.49l.16,0V13.3c0-.43.46-.77,1-.77s1,.35,1,.77V15a4.57,4.57,0,0,1,3.51,3.38,1,1,0,0,1-2,.51,2.51,2.51,0,0,0-3.28-1.78,2.84,2.84,0,0,0-2,1.4,2.41,2.41,0,0,0-.1,2c.46,1.07,3.39,2.09,4.79,2.58a14.85,14.85,0,0,1,1.49.56A3.74,3.74,0,0,1,40.77,27.78Z"/><path class="cls-1" d="M35.35,34.73a1.07,1.07,0,0,1-1.12-1V32a6.23,6.23,0,0,1-4.61-4.48,1.12,1.12,0,0,1,.92-1.29,1.13,1.13,0,0,1,1.29.93,4.06,4.06,0,0,0,3.4,2.72c2,0,3.17-.81,3.4-2.42.18-1.27-.31-1.69-.8-1.94a12.55,12.55,0,0,0-1.22-.46c-2.76-1-5.3-2-6.07-3.76a4.62,4.62,0,0,1,.15-3.8A4.89,4.89,0,0,1,34.14,15l.09,0V13.3a1.16,1.16,0,0,1,2.24,0v1.62A4.69,4.69,0,0,1,40,18.34a1.1,1.1,0,0,1-.12.84,1.12,1.12,0,0,1-2-.29,2.42,2.42,0,0,0-3.18-1.72,2.76,2.76,0,0,0-1.94,1.35,2.33,2.33,0,0,0-.09,1.91c.44,1,3.32,2,4.7,2.52l.07,0a14.47,14.47,0,0,1,1.46.55,3.81,3.81,0,0,1,2,4.26h0A4.86,4.86,0,0,1,36.47,32v1.68A1.07,1.07,0,0,1,35.35,34.73ZM30.72,26.4h-.15a1,1,0,0,0-.78,1.1,6.14,6.14,0,0,0,4.55,4.36h.07v1.84a1,1,0,0,0,1.91,0V31.9h.07a4.71,4.71,0,0,0,4.31-4.12h0a3.66,3.66,0,0,0-1.93-4.09,14.4,14.4,0,0,0-1.44-.54l-.08,0c-1.51-.53-4.33-1.52-4.8-2.61a2.51,2.51,0,0,1,.1-2A2.92,2.92,0,0,1,34.6,17a2.7,2.7,0,0,1,2.61.54,2.93,2.93,0,0,1,.76,1.3,1,1,0,0,0,1.74.25.93.93,0,0,0,.1-.72,4.51,4.51,0,0,0-3.45-3.32h-.07V13.3c0-.38-.43-.69-1-.69s-1,.31-1,.69v1.81h-.09l-.13,0a4.73,4.73,0,0,0-3.33,2.45,4.45,4.45,0,0,0-.15,3.66c.74,1.73,3.25,2.72,6,3.67a12,12,0,0,1,1.24.47c.52.26,1.09.73.89,2.11-.24,1.7-1.44,2.56-3.57,2.56a4.27,4.27,0,0,1-3.57-2.86A1,1,0,0,0,30.72,26.4Z"/><path class="cls-2" d="M11.5,16c3.5,0,6.36-3.18,6.36-7.09V7.81H36.47V5.73H14.29A6,6,0,0,0,8.61,12V33.57a6,6,0,0,0,5.68,6.21H21.2V37.71H17.86V36.61c0-3.91-2.85-7.09-6.36-7.09h-.82V16ZM10.68,12a3.91,3.91,0,0,1,3.61-4.15h1.49V8.91c0,2.77-1.92,5-4.29,5h-.82Zm.82,19.63c2.36,0,4.29,2.25,4.29,5v1.11H14.29a3.91,3.91,0,0,1-3.61-4.14v-2Z"/><path class="cls-2" d="M21.28,39.87h-7a6.06,6.06,0,0,1-5.77-6.3V12a6.06,6.06,0,0,1,5.77-6.3H36.55V7.89H17.94v1c0,4-2.89,7.18-6.44,7.18h-.73V29.43h.73c3.55,0,6.44,3.22,6.44,7.18v1h3.34Zm-7-34.05A5.89,5.89,0,0,0,8.69,12V33.57a5.89,5.89,0,0,0,5.6,6.13h6.82V37.79H17.77V36.61c0-3.86-2.82-7-6.28-7h-.9V15.92h.9c3.46,0,6.28-3.14,6.28-7V7.73H36.39V5.82Zm1.58,32H14.29a4,4,0,0,1-3.69-4.22V31.5h.9c2.41,0,4.37,2.29,4.37,5.1Zm-5.1-6.12v1.9a3.82,3.82,0,0,0,3.53,4.06H15.7v-1c0-2.72-1.89-4.94-4.2-4.94ZM11.5,14h-.9V12a4,4,0,0,1,3.69-4.23h1.58V8.91C15.87,11.73,13.91,14,11.5,14Zm-.73-.17h.73c2.32,0,4.2-2.21,4.2-4.94v-1H14.29A3.83,3.83,0,0,0,10.77,12Z"/><path class="cls-2" d="M55.83,5.73h-7V7.81h3.42V8.91c0,3.91,2.85,7.09,6.36,7.09h.82V29.51h-.82c-3.5,0-6.36,3.19-6.36,7.09v1.11H20.75v2.07H55.83a6,6,0,0,0,5.69-6.21V12A6,6,0,0,0,55.83,5.73Zm3.62,27.84a3.91,3.91,0,0,1-3.62,4.14H54.34V36.61c0-2.76,1.92-5,4.29-5h.82Zm-.82-19.64c-2.36,0-4.29-2.25-4.29-5V7.81h1.49A3.91,3.91,0,0,1,59.44,12v2Z"/><path class="cls-2" d="M55.83,39.87H20.67V37.63H52.18v-1c0-4,2.89-7.18,6.44-7.18h.73V16.09h-.73c-3.55,0-6.44-3.22-6.44-7.18v-1H48.76V5.65h7.06A6.06,6.06,0,0,1,61.6,12V33.57A6.06,6.06,0,0,1,55.83,39.87Zm-35-.17h35a5.89,5.89,0,0,0,5.61-6.13V12a5.9,5.9,0,0,0-5.61-6.14h-6.9V7.73h3.42V8.91c0,3.86,2.82,7,6.28,7h.9V29.6h-.9c-3.46,0-6.28,3.14-6.28,7v1.19H20.83Zm35-1.91H54.26V36.61c0-2.81,2-5.1,4.37-5.1h.9v2.07A4,4,0,0,1,55.83,37.79Zm-1.4-.17h1.4a3.83,3.83,0,0,0,3.53-4.06v-1.9h-.73c-2.32,0-4.2,2.21-4.2,4.94ZM59.53,14h-.9c-2.41,0-4.37-2.29-4.37-5.1V7.73h1.57A4,4,0,0,1,59.53,12Zm-5.1-6.12v1c0,2.72,1.89,4.94,4.2,4.94h.73V12a3.83,3.83,0,0,0-3.53-4.06Z"/><path class="cls-1" d="M45.95,6V7.61H43.59V10H41.91V7.61H39.56V6h2.36V3.61h1.68V6Z"/><path class="cls-1" d="M43.59,10.33H41.91a.33.33,0,0,1-.33-.33V7.94h-2a.33.33,0,0,1-.33-.33V6a.33.33,0,0,1,.33-.33h2V3.61a.33.33,0,0,1,.33-.33h1.68a.33.33,0,0,1,.33.33V5.68h2a.33.33,0,0,1,.33.33V7.61a.33.33,0,0,1-.33.33h-2V10A.33.33,0,0,1,43.59,10.33Zm-1.35-.66h1V7.61a.33.33,0,0,1,.33-.33h2V6.35h-2A.33.33,0,0,1,43.26,6V3.94h-1V6a.33.33,0,0,1-.33.33h-2v.93h2a.33.33,0,0,1,.33.33Z"/></svg>