<svg id="_ÎÓÈ_1" data-name="—ÎÓÈ_1" xmlns="http://www.w3.org/2000/svg" viewBox="0 0 56 56.55"><defs><style>.cls-1{fill:#a2d964;stroke:#a2d964;stroke-miterlimit:10;}.cls-2{fill:#78cacb;}</style></defs><title>CCI_best_of_</title><path class="cls-1" d="M48,11.64,29.75,4a1,1,0,0,0-.39-.08h-.82a1,1,0,0,0-.39.08L9.95,11.64a1,1,0,0,0-.61.92V30.4h0c0,1.79,1.45,7.95,5.25,11.46s13,11.23,13.07,11.31a1,1,0,0,0,.65.23h1.23a1,1,0,0,0,.64-.23c.09-.08,9.18-7.7,13.08-11.31s5.25-9.67,5.25-11.46h0V12.56A1,1,0,0,0,48,11.64ZM46.58,30.47c-.05.9-1.08,6.63-4.65,9.93s-11.16,9.7-12.72,11H28.7c-1.56-1.31-9.24-7.79-12.73-11s-4.59-9-4.64-9.93V13.22L28.74,5.89h.42l17.42,7.33Z"/><path class="cls-1" d="M29.14,12.25A13.41,13.41,0,1,0,42.55,25.66,13.43,13.43,0,0,0,29.14,12.25Zm0,24.83A11.42,11.42,0,1,1,40.56,25.66,11.43,11.43,0,0,1,29.14,37.08Z"/><path class="cls-2" d="M33.15,28.07a3.49,3.49,0,0,1-2.93,3.06v1.18a1,1,0,1,1-2,0V31.13A4.56,4.56,0,0,1,25,27.9a1,1,0,1,1,2-.33,2.61,2.61,0,0,0,2.12,1.68c1.9,0,2.06-1.1,2.11-1.47.11-.76-.16-1-.43-1.1s-.48-.19-.81-.3c-1.95-.68-3.75-1.4-4.31-2.72a3.36,3.36,0,0,1,.11-2.8A3.64,3.64,0,0,1,28.23,19V17.68a1,1,0,1,1,2,0V19a3.45,3.45,0,0,1,2.33,2.46,1,1,0,0,1-1.94.49,1.43,1.43,0,0,0-1.91-1,1.64,1.64,0,0,0-1.18.82,1.37,1.37,0,0,0-.06,1.11c.27.63,2.35,1.34,3.13,1.62a9.58,9.58,0,0,1,1.05.41A2.82,2.82,0,0,1,33.15,28.07Z"/><path class="cls-2" d="M29.22,33.44a1.12,1.12,0,0,1-1.12-1.12V31.23a4.64,4.64,0,0,1-3.24-3.31,1.12,1.12,0,1,1,2.21-.37,2.51,2.51,0,0,0,2,1.58c1.81,0,1.94-1,2-1.36.11-.74-.17-.88-.36-1s-.47-.18-.79-.29c-2-.69-3.81-1.42-4.39-2.79a3.47,3.47,0,0,1,.12-2.9,3.74,3.74,0,0,1,2.47-1.89V17.68a1.12,1.12,0,0,1,2.24,0v1.25a3.58,3.58,0,0,1,2.32,2.52A1.12,1.12,0,0,1,30.5,22a1.31,1.31,0,0,0-1.76-.94,1.52,1.52,0,0,0-1.1.75,1.24,1.24,0,0,0-.06,1c.24.57,2.32,1.29,3,1.53l.18.06a8.19,8.19,0,0,1,.94.37,2.93,2.93,0,0,1,1.58,3.29,3.61,3.61,0,0,1-2.93,3.14v1.09A1.12,1.12,0,0,1,29.22,33.44ZM26,26.86h-.15a.88.88,0,0,0-.72,1A4.45,4.45,0,0,0,28.26,31l.09,0v1.28a.88.88,0,1,0,1.75,0V31l.1,0a3.35,3.35,0,0,0,2.83-3h0a2.7,2.7,0,0,0-1.44-3,8.08,8.08,0,0,0-.91-.35l-.18-.06c-1.42-.5-2.9-1.08-3.15-1.67a1.48,1.48,0,0,1,.06-1.21,1.76,1.76,0,0,1,1.27-.88,1.56,1.56,0,0,1,2.05,1.11.88.88,0,0,0,1.7-.43,3.32,3.32,0,0,0-2.24-2.37l-.09,0V17.68a.88.88,0,0,0-1.75,0v1.43l-.09,0a3.52,3.52,0,0,0-2.41,1.79,3.23,3.23,0,0,0-.11,2.7c.55,1.28,2.32,2,4.24,2.65a8.56,8.56,0,0,1,.83.31c.32.16.61.42.49,1.22-.13,1-.88,1.57-2.23,1.57a2.72,2.72,0,0,1-2.24-1.79A.88.88,0,0,0,26,26.86Z"/></svg>