<svg id="_ÎÓÈ_1" data-name="—ÎÓÈ_1" xmlns="http://www.w3.org/2000/svg" viewBox="0 0 56.01 75.78"><defs><style>.cls-1{fill:#a2d964;}.cls-2{fill:#78cacb;}</style></defs><title>CCI_best_of_</title><path class="cls-1" d="M25.8,71.28a1.2,1.2,0,0,1-1.2-1.19v-26a1.2,1.2,0,1,1,2.41,0V70.09a1.2,1.2,0,0,1-1.2,1.19Z"/><path class="cls-1" d="M25.8,71.41a1.32,1.32,0,0,1-1.33-1.32v-26a1.31,1.31,0,0,1,.5-1,1.33,1.33,0,0,1,2.16,1.06V70.09A1.32,1.32,0,0,1,25.8,71.41Zm0-28.35a1.08,1.08,0,0,0-.67.23,1.06,1.06,0,0,0-.41.83v26a1.08,1.08,0,0,0,2.16,0V44.15a1.09,1.09,0,0,0-.81-1.06A1.15,1.15,0,0,0,25.81,43.06Z"/><path class="cls-1" d="M7.34,53.84A1.06,1.06,0,0,1,7,52.35l7.41-11.5h0c1-1.52,5.53-2.38,6.16-2.48l13-3a1.11,1.11,0,0,1,1.34.8,1.08,1.08,0,0,1-.82,1.3l-13.06,3-.1,0a27.13,27.13,0,0,0-4.64,1.44l0,.06L8.87,53.5a1.13,1.13,0,0,1-1.53.34Z"/><path class="cls-1" d="M7.93,54.13a1.25,1.25,0,0,1-.65-.18h0a1.2,1.2,0,0,1-.55-.76,1.17,1.17,0,0,1,.16-.9l7.47-11.6h0c1.13-1.52,5.65-2.35,6.18-2.44l13-3a1.24,1.24,0,0,1,1.49.89,1.17,1.17,0,0,1-.14.9,1.23,1.23,0,0,1-.77.55l-13.06,3-.11,0A27.74,27.74,0,0,0,16.4,42l0,0L9,53.57A1.25,1.25,0,0,1,7.93,54.13Zm-.52-.4a1,1,0,0,0,1.36-.3l7.44-11.57,0,0a26.81,26.81,0,0,1,4.68-1.46l.09,0,13.06-3a1,1,0,0,0,.62-.44.92.92,0,0,0,.11-.71,1,1,0,0,0-1.19-.7l-13,3c-.53.09-5.14.94-6.08,2.43l-.06.1h0L7.09,52.42a.92.92,0,0,0-.12.71A1,1,0,0,0,7.41,53.73Z"/><path class="cls-1" d="M19.78,28.9a2.75,2.75,0,1,0,2.8,2.75,2.78,2.78,0,0,0-2.8-2.75Zm0,7.88A5.13,5.13,0,1,1,25,31.65a5.16,5.16,0,0,1-5.18,5.13Z"/><path class="cls-1" d="M19.78,36.9a5.26,5.26,0,1,1,5.3-5.26A5.29,5.29,0,0,1,19.78,36.9Zm0-10.26a5,5,0,1,0,5.05,5A5,5,0,0,0,19.78,26.64Zm0,7.88a2.88,2.88,0,1,1,2.92-2.88A2.9,2.9,0,0,1,19.78,34.52Zm0-5.5a2.62,2.62,0,1,0,2.67,2.62A2.65,2.65,0,0,0,19.78,29Z"/><path class="cls-2" d="M36.46,29.79a1.2,1.2,0,0,1-1.2-1.2v-.76a4.19,4.19,0,0,1,1.86-3.39A2.54,2.54,0,0,0,38.42,22c-.44-3.49-5.51-4.26-7.75-1.92a2.7,2.7,0,0,0-.8,1.93,3,3,0,0,0,1.29,2.42,4.35,4.35,0,0,1,2,3.46v.63a1.2,1.2,0,1,1-2.41,0v-.53a2.18,2.18,0,0,0-1-1.61,5.5,5.5,0,0,1-2.3-4.35,5.13,5.13,0,0,1,1.48-3.68c3.64-3.81,11.3-2.3,12,3.32a4.93,4.93,0,0,1-2.3,4.68,1.94,1.94,0,0,0-.91,1.53v.64a1.2,1.2,0,0,1-1.2,1.2Z"/><path class="cls-2" d="M36.46,29.91a1.33,1.33,0,0,1-1.33-1.33v-.76A4.32,4.32,0,0,1,37,24.33a2.42,2.42,0,0,0,1.24-2.27,3.51,3.51,0,0,0-2.56-2.89,4.93,4.93,0,0,0-5,1A2.57,2.57,0,0,0,30,22.05a2.91,2.91,0,0,0,1.23,2.32,4.47,4.47,0,0,1,2,3.56v.63a1.33,1.33,0,1,1-2.66,0v-.53a2.06,2.06,0,0,0-1-1.5,5.63,5.63,0,0,1-2.35-4.45,5.25,5.25,0,0,1,1.52-3.77,7.64,7.64,0,0,1,7.82-1.74A6.13,6.13,0,0,1,41,21.71a5,5,0,0,1-2.36,4.8,1.82,1.82,0,0,0-.86,1.43v.64A1.33,1.33,0,0,1,36.46,29.91ZM34.1,18.66a5.48,5.48,0,0,1,1.72.27A3.75,3.75,0,0,1,38.54,22a2.65,2.65,0,0,1-1.35,2.51,4.07,4.07,0,0,0-1.81,3.29v.76a1.08,1.08,0,0,0,2.16,0v-.64a2.07,2.07,0,0,1,1-1.63,4.8,4.8,0,0,0,2.25-4.56,5.89,5.89,0,0,0-4.24-4.92A7.39,7.39,0,0,0,29,18.5a5,5,0,0,0-1.45,3.59,5.38,5.38,0,0,0,2.25,4.25,2.3,2.3,0,0,1,1.07,1.71v.53a1.07,1.07,0,0,0,.41.85A1.08,1.08,0,0,0,33,28.57v-.63a4.23,4.23,0,0,0-1.9-3.35,3.15,3.15,0,0,1-1.34-2.52,2.82,2.82,0,0,1,.84-2A4.89,4.89,0,0,1,34.1,18.66Z"/><path class="cls-2" d="M35.76,33.45H32.68a1.29,1.29,0,0,1-1.15-.68A1.24,1.24,0,0,1,32.58,31h3.08a1.29,1.29,0,0,1,1.15.68,1.24,1.24,0,0,1-1.05,1.81Z"/><path class="cls-2" d="M35.76,33.58H32.68a1.41,1.41,0,0,1-1.26-.75,1.37,1.37,0,0,1,.05-1.34,1.31,1.31,0,0,1,1.11-.65h3.08a1.42,1.42,0,0,1,1.26.75,1.37,1.37,0,0,1-.06,1.34A1.31,1.31,0,0,1,35.76,33.58Zm-3.18-2.49a1.06,1.06,0,0,0-.9.53,1.12,1.12,0,0,0,0,1.1,1.17,1.17,0,0,0,1,.61h3.08a1.06,1.06,0,0,0,.9-.53,1.12,1.12,0,0,0,0-1.1,1.17,1.17,0,0,0-1-.61Z"/><path class="cls-2" d="M44.51,22.36a1.14,1.14,0,0,1-1.19-1.12A1.26,1.26,0,0,1,44.5,20l5.08-.09h0a1.3,1.3,0,0,1,1.19,1.31,1.18,1.18,0,0,1-1.19,1.18H44.51Z"/><path class="cls-2" d="M49.59,22.49H44.51a1.26,1.26,0,0,1-1.32-1.25,1.4,1.4,0,0,1,1.31-1.4l5.08-.09a1.42,1.42,0,0,1,1.32,1.44,1.29,1.29,0,0,1-.38.92A1.31,1.31,0,0,1,49.59,22.49Zm0-2.49-5.08.09a1.14,1.14,0,0,0-1.06,1.15,1,1,0,0,0,1.07,1h5.08a1.06,1.06,0,0,0,.76-.31,1,1,0,0,0,.31-.74A1.18,1.18,0,0,0,49.58,20Z"/><path class="cls-2" d="M23.84,19.87A1.14,1.14,0,0,1,25,21a1.26,1.26,0,0,1-1.19,1.28l-5.08.09h0a1.3,1.3,0,0,1-1.19-1.31,1.18,1.18,0,0,1,1.19-1.18h5.08Z"/><path class="cls-2" d="M18.76,22.49a1.42,1.42,0,0,1-1.32-1.44,1.29,1.29,0,0,1,.38-.92,1.31,1.31,0,0,1,.93-.38h5.08A1.26,1.26,0,0,1,25.15,21a1.4,1.4,0,0,1-1.31,1.4Zm0-2.49a1.06,1.06,0,0,0-.76.31,1,1,0,0,0-.31.74,1.18,1.18,0,0,0,1.07,1.19l5.08-.09A1.14,1.14,0,0,0,24.9,21a1,1,0,0,0-1.07-1Z"/><path class="cls-2" d="M41.35,15.2a1.19,1.19,0,0,1-.16-1.68l3.29-4a1.19,1.19,0,1,1,1.83,1.52L43,15a1.19,1.19,0,0,1-1.68.16Z"/><path class="cls-2" d="M42.11,15.6a1.31,1.31,0,0,1-.84-.3h0a1.32,1.32,0,0,1-.17-1.85l3.29-4a1.32,1.32,0,1,1,2,1.68l-3.29,4A1.31,1.31,0,0,1,42.11,15.6Zm-.68-.5a1.07,1.07,0,0,0,1.5-.14l3.29-4a1.06,1.06,0,1,0-1.64-1.36l-3.29,4a1.06,1.06,0,0,0,.14,1.5Z"/><path class="cls-2" d="M22,9.9a1.19,1.19,0,0,1,1.68-.16l4,3.29a1.19,1.19,0,1,1-1.52,1.83l-4-3.29A1.19,1.19,0,0,1,22,9.9Z"/><path class="cls-2" d="M26.91,15.26a1.31,1.31,0,0,1-.84-.3l-4-3.29a1.32,1.32,0,0,1-.17-1.85h0a1.32,1.32,0,0,1,1.85-.17l4,3.29a1.32,1.32,0,0,1-.84,2.33ZM22.13,10a1.07,1.07,0,0,0,.14,1.5l4,3.29a1.06,1.06,0,0,0,1.36-1.64l-4-3.29a1.07,1.07,0,0,0-1.5.14Z"/><path class="cls-1" d="M14.76,70.89a1.24,1.24,0,0,1-1.25-1.19v-19a1.29,1.29,0,0,1,.68-1.15A1.25,1.25,0,0,1,16,50.65V69.7a1.24,1.24,0,0,1-1.25,1.19Z"/><path class="cls-1" d="M14.76,71a1.36,1.36,0,0,1-1.37-1.32v-19a1.42,1.42,0,0,1,.75-1.26,1.37,1.37,0,0,1,1.34.06,1.31,1.31,0,0,1,.65,1.11V69.7A1.36,1.36,0,0,1,14.76,71Zm0-21.43a1.11,1.11,0,0,0-.51.12,1.17,1.17,0,0,0-.62,1v19a1.12,1.12,0,0,0,2.24,0V50.65a1.06,1.06,0,0,0-.53-.89A1.13,1.13,0,0,0,14.76,49.59Z"/><path class="cls-1" d="M20.35,70.89A1.24,1.24,0,0,1,19.1,69.7V56.31a1.29,1.29,0,0,1,.68-1.15,1.24,1.24,0,0,1,1.81,1.05V69.7a1.24,1.24,0,0,1-1.25,1.19Z"/><path class="cls-1" d="M20.35,71A1.36,1.36,0,0,1,19,69.7V56.31A1.41,1.41,0,0,1,19.72,55a1.36,1.36,0,0,1,1.34.05,1.31,1.31,0,0,1,.65,1.11V69.7A1.36,1.36,0,0,1,20.35,71Zm0-15.88a1.11,1.11,0,0,0-.51.12,1.17,1.17,0,0,0-.61,1V69.7a1.12,1.12,0,0,0,2.24,0V56.21a1.06,1.06,0,0,0-.53-.9A1.13,1.13,0,0,0,20.35,55.14Z"/><path class="cls-2" d="M34.18,11.38a1.24,1.24,0,0,1-1.25-1.19V5.52a1.29,1.29,0,0,1,.68-1.15,1.24,1.24,0,0,1,1.81,1.05v4.76a1.24,1.24,0,0,1-1.25,1.19Z"/><path class="cls-2" d="M34.18,11.5a1.36,1.36,0,0,1-1.37-1.32V5.52a1.41,1.41,0,0,1,.75-1.26,1.37,1.37,0,0,1,1.35.05,1.31,1.31,0,0,1,.65,1.11v4.76A1.36,1.36,0,0,1,34.18,11.5Zm0-7.14a1.11,1.11,0,0,0-.51.12,1.17,1.17,0,0,0-.61,1v4.66a1.12,1.12,0,0,0,2.24,0V5.42a1.06,1.06,0,0,0-.53-.9A1.13,1.13,0,0,0,34.19,4.36Z"/></svg>